<?xml version="1.0" encoding="iso-8859-1"?>
<!-- Uploaded to: SVG Repo, www.svgrepo.com, Generator: SVG Repo Mixer Tools -->
<svg height="800px" width="800px" version="1.1" id="Layer_1" xmlns="http://www.w3.org/2000/svg" xmlns:xlink="http://www.w3.org/1999/xlink" 
	 viewBox="0 0 512 512" xml:space="preserve">
<path style="fill:#A78966;" d="M506.311,473.468L360.017,288.126L279.256,185.81l-5.005-6.339
	c-4.414-5.591-11.145-8.852-18.266-8.852s-13.854,3.263-18.266,8.852l-5.005,6.339l-80.761,102.315L5.003,474.295
	c-0.69,0.875-1.311,1.79-1.86,2.737c-1.649,2.839-2.659,5.965-3.007,9.163c-0.348,3.197-0.034,6.468,0.965,9.596
	c0.334,1.043,0.742,2.07,1.229,3.072c0.244,0.501,0.503,0.991,0.777,1.471c0.551,0.956,1.165,1.865,1.834,2.721
	s1.396,1.66,2.172,2.408s1.601,1.44,2.468,2.07c0.434,0.315,0.878,0.616,1.333,0.9c0.759,0.476,1.551,0.897,2.361,1.283
	c0.644,0.307,1.299,0.596,1.97,0.842c1.012,0.372,2.053,0.675,3.115,0.904c1.593,0.344,3.238,0.523,4.91,0.523h232.713h232.713
	c0.012,0,0.02,0,0.031,0c12.854,0,23.271-10.419,23.271-23.271C512,482.882,509.854,477.55,506.311,473.468z"/>
<path style="fill:#A9A8AE;" d="M255.985,170.618c7.123,0,13.854,3.263,18.266,8.852l5.005,6.339v-69.437
	c0,12.852-10.419,23.271-23.271,23.271h-23.271v46.166l5.005-6.339C242.13,173.879,248.862,170.618,255.985,170.618z"/>
<path style="fill:#D8143A;" d="M279.256,116.373V23.288c0-12.852-10.419-23.271-23.271-23.271H147.385
	c-12.852,0-23.271,10.419-23.271,23.271v93.085c0,12.852,10.419,23.271,23.271,23.271h85.328h23.271
	C268.837,139.644,279.256,129.225,279.256,116.373z"/>
<path style="fill:#D6D5D8;" d="M170.22,279.272c4.026,0,8.025,1.044,11.527,3.03l3.073,1.744l40.829,23.164v-0.002l19.956-9.969
	c0.818-0.41,1.654-0.766,2.502-1.072c0.464-0.166,0.937-0.281,1.407-0.417c0.393-0.113,0.777-0.254,1.174-0.348
	c0.855-0.202,1.721-0.351,2.591-0.453c0.014-0.002,0.028-0.005,0.04-0.006c0.822-0.096,1.648-0.137,2.475-0.144
	c0.062,0,0.124-0.011,0.188-0.011h0.002c3.576-0.003,7.15,0.814,10.435,2.457l19.911,9.962l40.83-23.146l3.111-1.764
	c9.999-5.664,22.628-3.19,29.744,5.827L279.256,185.81l-5.005-6.339c-4.414-5.59-11.145-8.852-18.266-8.852
	c-7.123,0-13.854,3.263-18.266,8.852l-5.005,6.339l-80.761,102.315C156.366,282.533,163.098,279.272,170.22,279.272z"/>
<path style="fill:#806749;" d="M255.797,294.799c-0.827,0.008-1.651,0.05-2.475,0.144c-0.014,0.002-0.028,0.005-0.04,0.006
	c-0.87,0.102-1.736,0.253-2.591,0.453c-0.397,0.092-0.782,0.233-1.174,0.348c-0.47,0.137-0.943,0.251-1.407,0.417
	c-0.849,0.307-1.685,0.664-2.502,1.072l-19.956,9.969v0.002l-40.829-23.164l-3.073-1.744c-3.502-1.986-7.501-3.03-11.527-3.03
	c-7.123,0-13.854,3.263-18.266,8.852L5.006,474.295c-5.526,7-6.563,16.543-2.675,24.567c3.889,8.026,12.024,13.122,20.941,13.122
	h232.713V294.788C255.921,294.788,255.859,294.799,255.797,294.799z"/>
<g>
	<path style="fill:#AF2E08;" d="M255.797,294.799c0.062,0,0.124-0.011,0.188-0.011l0,0
		C255.921,294.788,255.859,294.799,255.797,294.799z"/>
	<path style="fill:#AF2E08;" d="M250.691,295.402c-0.397,0.092-0.782,0.233-1.174,0.348
		C249.909,295.637,250.294,295.495,250.691,295.402z"/>
	<path style="fill:#AF2E08;" d="M248.11,296.167c-0.849,0.307-1.685,0.664-2.502,1.072
		C246.425,296.831,247.261,296.474,248.11,296.167z"/>
	<path style="fill:#AF2E08;" d="M253.322,294.943c-0.014,0.002-0.028,0.005-0.04,0.006
		C253.296,294.948,253.308,294.945,253.322,294.943z"/>
</g>
<path style="fill:#DB380E;" d="M255.985,294.788h0.002H255.985z"/>
</svg>